<svg id="Layer_3" enable-background="new 0 0 64 64" height="512" viewBox="0 0 64 64" width="512" xmlns="http://www.w3.org/2000/svg"><g><path d="m9 54v-5.754c0-3.671 2.498-6.871 6.06-7.761l9.94-2.485h14l9.94 2.485c3.561.89 6.06 4.09 6.06 7.761v5.754" fill="#546ded"/><path d="m47 50c2.209 0 4-1.791 4-4v-4.676c-.634-.366-1.322-.654-2.06-.839l-9.94-2.485h-14l-9.94 2.485c-3.562.89-6.06 4.09-6.06 7.761v1.754z" fill="#7fa3f8"/><path d="m25.5 47h-10c-.828 0-1.5-.672-1.5-1.5 0-.828.672-1.5 1.5-1.5h10c.828 0 1.5.672 1.5 1.5 0 .828-.672 1.5-1.5 1.5z" fill="#acc9fb"/><path d="m46 58h9v4h-9z" fill="#f2b9a1"/><path d="m9 58h9v4h-9z" fill="#f2b9a1"/><path d="m17 52h30v10h-30z" fill="#f6b940"/><path d="m17 52v7h25c1.105 0 2-.895 2-2v-5z" fill="#fad85d"/><path d="m32 57h-11c-1.105 0-2-.895-2-2 0-1.105.895-2 2-2h11c1.105 0 2 .895 2 2 0 1.105-.895 2-2 2z" fill="#fce797"/><g fill="#f2b9a1"><path d="m39 38c0 3.866-3.134 7-7 7s-7-3.134-7-7"/><path d="m20 30h-1c-2.209 0-4-1.791-4-4 0-2.209 1.791-4 4-4"/><path d="m44 30h1c2.209 0 4-1.791 4-4 0-2.209-1.791-4-4-4"/></g><path d="m19 20v7c0 7.18 5.82 13 13 13 7.18 0 13-5.82 13-13v-7" fill="#fbe1ca"/><path d="m47 15c0-7.18-5.82-13-13-13h-4c-7.18 0-13 5.82-13 13" fill="#f6b940"/><path d="m40 13c1.105 0 2-.895 2-2v-6.233c-2.207-1.728-4.98-2.767-8-2.767h-4c-6.498 0-11.866 4.772-12.831 11z" fill="#fad85d"/><path d="m19 22c1.921 1.921 4.526 3 7.243 3h3.757l2-2 2 2h3.757c2.717 0 5.322-1.079 7.243-3v-3h-26z" fill="#787faa"/><path d="m47 54h10v4h-10" fill="#3d54bd"/><path d="m17 54h-10v4h10" fill="#3d54bd"/><path d="m21 54h4v-16l-4 1z" fill="#4c506e"/><path d="m43 54v-15l-4-1v16z" fill="#4c506e"/><g><path d="m30 35h4v2h-4z" fill="#f2b9a1"/></g><path d="m39.807 37.377-1.807-3.613c-.854-1.705-2.566-2.764-4.472-2.764h-3.057c-1.905 0-3.618 1.059-4.472 2.764l-1.807 3.614c.569.429 1.17.816 1.807 1.148v-.289l1.789-3.578c.513-1.023 1.541-1.659 2.684-1.659h3.057c1.143 0 2.171.636 2.683 1.658l1.788 3.578v.289c.637-.331 1.237-.719 1.807-1.148z" fill="#4c506e"/><path d="m15 15h34v4h-34z" fill="#f6b940"/><g><path d="m31 27h2v3h-2z" fill="#f2b9a1"/></g><path d="m22 17h27v-2h-29c0 1.105.895 2 2 2z" fill="#fad85d"/><g><path d="m32 16c-3.309 0-6-2.691-6-6s2.691-6 6-6 6 2.691 6 6-2.691 6-6 6zm0-10c-2.206 0-4 1.794-4 4s1.794 4 4 4 4-1.794 4-4-1.794-4-4-4z" fill="#858bb5"/></g><g><path d="m32 13c-1.654 0-3-1.346-3-3s1.346-3 3-3 3 1.346 3 3-1.346 3-3 3zm0-4c-.552 0-1 .448-1 1s.448 1 1 1 1-.448 1-1-.448-1-1-1z" fill="#c8cded"/></g><path d="m42 23h-20c-.552 0-1-.448-1-1v-1c0-.552.448-1 1-1h20c.552 0 1 .448 1 1v1c0 .552-.448 1-1 1z" fill="#9da1bf"/><path d="m40 53c.552 0 1-.448 1-1v-13.5l-2-.5v15z" fill="#787faa"/><path d="m23 52v-13.5l-2 .5v14h1c.552 0 1-.448 1-1z" fill="#787faa"/><path d="m47 58v3h5c1.105 0 2-.895 2-2v-1z" fill="#fbe1ca"/><path d="m17 58v3h-5c-1.105 0-2-.895-2-2v-1z" fill="#fbe1ca"/></g></svg>